<?xml version="1.0" encoding="UTF-8"?>
<svg version="1.1" xmlns="http://www.w3.org/2000/svg" width="772" height="857">
<path d="M0 0 C32.91392307 24.6278701 52.14495325 70.59431831 69.16723633 106.9128418 C73.42546602 115.97447245 77.92338885 124.84293857 82.8203125 133.578125 C83.33907959 134.51084229 83.85784668 135.44355957 84.39233398 136.40454102 C85.89633732 139.04305537 87.45976146 141.62842781 89.0703125 144.203125 C89.60849609 145.09290039 90.14667969 145.98267578 90.70117188 146.89941406 C93.53666784 151.39080039 93.53666784 151.39080039 98.08178711 153.62451172 C100.51875171 153.39552037 102.71019656 152.85280702 105.0703125 152.203125 C107.04411592 151.81031491 109.0194921 151.42535306 110.99609375 151.046875 C114.1890695 150.38109721 117.37931304 149.70387596 120.56835938 149.01953125 C136.20253826 145.77161947 152.15491861 145.63554827 168.0703125 145.203125 C169.14812988 145.17299316 170.22594727 145.14286133 171.33642578 145.11181641 C195.56593719 144.5325514 219.63711906 146.69511469 243.75390625 148.78125 C263.11327978 150.58353681 263.11327978 150.58353681 280.2421875 142.72265625 C300.99871784 124.77652338 315.74432009 100.57273197 329.19165039 76.99169922 C336.82937832 63.62060336 345.22719444 51.06183184 355.0703125 39.203125 C355.81152344 38.27757812 356.55273438 37.35203125 357.31640625 36.3984375 C361.10085152 31.68862197 364.92964184 27.2529469 369.2734375 23.05859375 C371.44105269 20.82029546 373.36714475 18.44323244 375.3203125 16.015625 C380.31454695 9.82379351 385.61686012 3.98900844 391.0703125 -1.796875 C391.84503906 -2.62574219 392.61976563 -3.45460938 393.41796875 -4.30859375 C401.32902436 -12.5266039 410.48906486 -20.46847525 422.3203125 -21.296875 C435.06747296 -20.81419423 447.99234859 -11.71119834 456.49609375 -2.8203125 C461.57352388 3.14316386 465.87156833 9.60208194 470.0703125 16.203125 C470.44430176 16.78578125 470.81829102 17.3684375 471.20361328 17.96875 C480.29631734 32.33580986 486.69892267 48.34861879 489.0703125 65.203125 C489.24087158 66.41186279 489.41143066 67.62060059 489.5871582 68.8659668 C490.12727775 73.23697072 490.24840388 77.55636804 490.2734375 81.95703125 C490.28389099 83.21290794 490.28389099 83.21290794 490.29455566 84.49415588 C490.31208787 87.25136301 490.31829951 90.00836407 490.3203125 92.765625 C490.32131958 93.72297546 490.32232666 94.68032593 490.32336426 95.66668701 C490.29062111 142.36708297 484.87016852 188.17887946 477.41943359 234.20458984 C475.47005837 246.24932755 473.57669536 258.29867804 471.83203125 270.375 C471.58054321 272.09733353 471.58054321 272.09733353 471.32397461 273.85446167 C468.68090636 292.40556563 470.64060617 305.58048751 477.0703125 323.203125 C477.61845295 324.78296567 478.16414952 326.36365706 478.70703125 327.9453125 C482.19060093 337.91934493 486.36484686 347.53744124 490.67089844 357.17993164 C499.62275361 377.32463619 507.43728876 397.96114987 515.19140625 418.58984375 C517.27559436 424.12644883 519.39964701 429.64620588 521.54296875 435.16015625 C522.42969588 437.44942835 523.31588599 439.73890767 524.20193481 442.02844238 C524.77143818 443.49564157 525.3433571 444.96190593 525.91793823 446.42712402 C530.33277566 457.68956761 534.43758471 469.01381028 535.0703125 481.203125 C535.16699219 483.04197266 535.16699219 483.04197266 535.265625 484.91796875 C535.30821031 486.26291391 535.34725575 487.60797568 535.3828125 488.953125 C535.43888672 490.83257813 535.43888672 490.83257813 535.49609375 492.75 C534.99771941 496.79186165 534.01211894 498.43032719 531.0703125 501.203125 C524.97880365 501.32495518 519.59296051 498.56257518 514.0703125 496.203125 C514.19583496 496.91130371 514.32135742 497.61948242 514.45068359 498.34912109 C518.04259828 519.16597635 519.36772912 539.92376142 519.4453125 561.015625 C519.45682343 562.32639008 519.45682343 562.32639008 519.46856689 563.66363525 C519.57925917 579.40155968 518.21747842 594.72369123 512.8828125 609.640625 C512.58528076 610.50115479 512.28774902 611.36168457 511.98120117 612.24829102 C509.79543161 618.45102813 507.40198392 624.56623357 504.8828125 630.640625 C504.56223877 631.415271 504.24166504 632.18991699 503.91137695 632.98803711 C499.30690228 643.74447949 499.30690228 643.74447949 494.1953125 647.078125 C490.30984721 648.4768925 487.18872054 648.99146068 483.21630859 647.51318359 C481.17409217 646.55060699 479.18419806 645.52144067 477.1953125 644.453125 C476.52628906 644.10507812 475.85726562 643.75703125 475.16796875 643.3984375 C472.39559653 641.95616293 469.62837395 640.50797573 466.88574219 639.00976562 C466.18094727 638.63529297 465.47615234 638.26082031 464.75 637.875 C463.79843018 637.35824707 463.79843018 637.35824707 462.82763672 636.83105469 C460.8690619 635.92742724 460.8690619 635.92742724 458.0703125 637.203125 C456.47682389 639.14927027 456.47682389 639.14927027 454.9453125 641.578125 C448.44798454 651.14099809 440.85829435 659.65142411 432.9765625 668.07421875 C430.45049287 670.77708036 428.00625331 673.54356223 425.5703125 676.328125 C420.45028664 682.04070358 414.78240579 687.10062269 409.0703125 692.203125 C408.24660156 692.95335937 407.42289063 693.70359375 406.57421875 694.4765625 C383.24810391 715.69604957 358.54031869 735.70795261 332.07763672 752.89648438 C330.71918725 753.78074873 329.36412309 754.67023202 328.01220703 755.56445312 C297.10046607 775.98764794 263.50956569 790.83800323 229.0703125 804.203125 C228.26285583 804.51717285 227.45539917 804.8312207 226.62347412 805.15478516 C204.62132928 813.70951081 182.62927476 822.21368619 160.0703125 829.203125 C159.16829102 829.49316406 158.26626953 829.78320312 157.33691406 830.08203125 C154.81924924 830.88484614 152.29302214 831.64534006 149.7578125 832.390625 C149.07146729 832.61194092 148.38512207 832.83325684 147.67797852 833.0612793 C135.88383977 836.30824293 124.25454035 831.57679407 113.6953125 826.578125 C112.51485352 826.03542969 111.33439453 825.49273438 110.11816406 824.93359375 C106.75765339 823.37932295 103.41125989 821.79894361 100.0703125 820.203125 C99.27270508 819.82317383 98.47509766 819.44322266 97.65332031 819.05175781 C93.79591546 817.19838823 89.98123691 815.27283718 86.18505859 813.29736328 C83.75515166 812.04005055 81.31313182 810.80779835 78.87109375 809.57421875 C53.26727408 796.54546204 29.0244002 781.79722602 7.0703125 763.203125 C6.03874884 762.35556639 5.0061468 761.50927044 3.97265625 760.6640625 C-33.42083608 729.88362135 -62.57211642 682.33242383 -68.22900391 633.62597656 C-68.37260655 631.56930213 -68.49600097 629.51124192 -68.6171875 627.453125 C-69.05062317 623.30928951 -69.33886616 621.77586968 -72.35546875 618.8515625 C-75.4136486 616.78297687 -75.4136486 616.78297687 -78.69921875 615.015625 C-99.68568955 603.24086992 -117.82148888 575.66604449 -124.9296875 553.203125 C-126.14698694 548.23290656 -127.14043786 543.25858889 -127.9296875 538.203125 C-128.03192627 537.54884521 -128.13416504 536.89456543 -128.23950195 536.22045898 C-129.0031585 530.56784599 -128.88339083 525.06217736 -128.71240234 519.36938477 C-128.37707797 506.67778706 -129.55952312 496.78182594 -134.24609375 485.05957031 C-141.37377233 465.70283177 -136.79122795 441.53332287 -128.85693359 423.18554688 C-126.97214339 419.15592695 -124.7212431 415.33730446 -122.47387695 411.50195312 C-119.30920459 406.04676847 -116.58901563 400.44889203 -113.9921875 394.703125 C-113.61473389 393.87844727 -113.23728027 393.05376953 -112.84838867 392.20410156 C-112.31822144 391.01252441 -112.31822144 391.01252441 -111.77734375 389.796875 C-111.46804932 389.10271484 -111.15875488 388.40855469 -110.84008789 387.69335938 C-108.5899516 381.53852158 -107.5680616 375.3511884 -106.8515625 368.875 C-106.66220363 367.26765291 -106.47206847 365.66039712 -106.28125 364.05322266 C-106.18360352 363.22075012 -106.08595703 362.38827759 -105.98535156 361.53057861 C-103.44179799 340.08255071 -100.16979276 318.73149005 -93.31445312 298.17041016 C-91.21231174 291.71163209 -93.01791948 288.90318515 -95.9921875 283.015625 C-112.84764747 247.85957255 -117.98220094 204.59806476 -118.1328125 165.9765625 C-118.14326599 164.15396912 -118.14326599 164.15396912 -118.15393066 162.29455566 C-118.17123207 158.3890431 -118.17765183 154.4836743 -118.1796875 150.578125 C-118.18027664 149.91193398 -118.18086578 149.24574295 -118.18147278 148.55936432 C-118.19513809 126.65032445 -117.62931326 104.96435588 -114.9296875 83.203125 C-114.78515137 82.01831543 -114.64061523 80.83350586 -114.49169922 79.61279297 C-110.18179975 45.63474834 -103.00460809 10.20972774 -75.42578125 -12.89453125 C-48.90888551 -32.43984877 -23.23105446 -16.82452192 0 0 Z " fill="#F27B0C" transform="translate(186.9296875,22.796875)"/>
<path d="M0 0 C32.91392307 24.6278701 52.14495325 70.59431831 69.16723633 106.9128418 C73.42546602 115.97447245 77.92338885 124.84293857 82.8203125 133.578125 C83.33907959 134.51084229 83.85784668 135.44355957 84.39233398 136.40454102 C85.89633732 139.04305537 87.45976146 141.62842781 89.0703125 144.203125 C89.60849609 145.09290039 90.14667969 145.98267578 90.70117188 146.89941406 C93.53666784 151.39080039 93.53666784 151.39080039 98.08178711 153.62451172 C100.51875171 153.39552037 102.71019656 152.85280702 105.0703125 152.203125 C107.04411592 151.81031491 109.0194921 151.42535306 110.99609375 151.046875 C114.1890695 150.38109721 117.37931304 149.70387596 120.56835938 149.01953125 C136.20253826 145.77161947 152.15491861 145.63554827 168.0703125 145.203125 C169.14812988 145.17299316 170.22594727 145.14286133 171.33642578 145.11181641 C195.56593719 144.5325514 219.63711906 146.69511469 243.75390625 148.78125 C263.11327978 150.58353681 263.11327978 150.58353681 280.2421875 142.72265625 C300.99871784 124.77652338 315.74432009 100.57273197 329.19165039 76.99169922 C336.82937832 63.62060336 345.22719444 51.06183184 355.0703125 39.203125 C355.81152344 38.27757812 356.55273438 37.35203125 357.31640625 36.3984375 C361.10085152 31.68862197 364.92964184 27.2529469 369.2734375 23.05859375 C371.44105269 20.82029546 373.36714475 18.44323244 375.3203125 16.015625 C380.31454695 9.82379351 385.61686012 3.98900844 391.0703125 -1.796875 C391.84503906 -2.62574219 392.61976563 -3.45460938 393.41796875 -4.30859375 C401.32902436 -12.5266039 410.48906486 -20.46847525 422.3203125 -21.296875 C435.06747296 -20.81419423 447.99234859 -11.71119834 456.49609375 -2.8203125 C461.57352388 3.14316386 465.87156833 9.60208194 470.0703125 16.203125 C470.44430176 16.78578125 470.81829102 17.3684375 471.20361328 17.96875 C480.29631734 32.33580986 486.69892267 48.34861879 489.0703125 65.203125 C489.24087158 66.41186279 489.41143066 67.62060059 489.5871582 68.8659668 C490.12727775 73.23697072 490.24840388 77.55636804 490.2734375 81.95703125 C490.28389099 83.21290794 490.28389099 83.21290794 490.29455566 84.49415588 C490.31208787 87.25136301 490.31829951 90.00836407 490.3203125 92.765625 C490.32131958 93.72297546 490.32232666 94.68032593 490.32336426 95.66668701 C490.29062111 142.36708297 484.87016852 188.17887946 477.41943359 234.20458984 C475.47005837 246.24932755 473.57669536 258.29867804 471.83203125 270.375 C471.58054321 272.09733353 471.58054321 272.09733353 471.32397461 273.85446167 C468.68090636 292.40556563 470.64060617 305.58048751 477.0703125 323.203125 C477.61845295 324.78296567 478.16414952 326.36365706 478.70703125 327.9453125 C482.19060093 337.91934493 486.36484686 347.53744124 490.67089844 357.17993164 C499.62275361 377.32463619 507.43728876 397.96114987 515.19140625 418.58984375 C517.27559436 424.12644883 519.39964701 429.64620588 521.54296875 435.16015625 C522.42969588 437.44942835 523.31588599 439.73890767 524.20193481 442.02844238 C524.77143818 443.49564157 525.3433571 444.96190593 525.91793823 446.42712402 C530.33277566 457.68956761 534.43758471 469.01381028 535.0703125 481.203125 C535.16699219 483.04197266 535.16699219 483.04197266 535.265625 484.91796875 C535.30821031 486.26291391 535.34725575 487.60797568 535.3828125 488.953125 C535.43888672 490.83257813 535.43888672 490.83257813 535.49609375 492.75 C534.99771941 496.79186165 534.01211894 498.43032719 531.0703125 501.203125 C524.97880365 501.32495518 519.59296051 498.56257518 514.0703125 496.203125 C514.19583496 496.91130371 514.32135742 497.61948242 514.45068359 498.34912109 C518.04259828 519.16597635 519.36772912 539.92376142 519.4453125 561.015625 C519.45682343 562.32639008 519.45682343 562.32639008 519.46856689 563.66363525 C519.57925917 579.40155968 518.21747842 594.72369123 512.8828125 609.640625 C512.58528076 610.50115479 512.28774902 611.36168457 511.98120117 612.24829102 C509.79543161 618.45102813 507.40198392 624.56623357 504.8828125 630.640625 C504.56223877 631.415271 504.24166504 632.18991699 503.91137695 632.98803711 C499.30690228 643.74447949 499.30690228 643.74447949 494.1953125 647.078125 C490.30984721 648.4768925 487.18872054 648.99146068 483.21630859 647.51318359 C481.17409217 646.55060699 479.18419806 645.52144067 477.1953125 644.453125 C476.52628906 644.10507812 475.85726562 643.75703125 475.16796875 643.3984375 C472.39559653 641.95616293 469.62837395 640.50797573 466.88574219 639.00976562 C466.18094727 638.63529297 465.47615234 638.26082031 464.75 637.875 C463.79843018 637.35824707 463.79843018 637.35824707 462.82763672 636.83105469 C460.8690619 635.92742724 460.8690619 635.92742724 458.0703125 637.203125 C456.47682389 639.14927027 456.47682389 639.14927027 454.9453125 641.578125 C448.44798454 651.14099809 440.85829435 659.65142411 432.9765625 668.07421875 C430.45049287 670.77708036 428.00625331 673.54356223 425.5703125 676.328125 C420.45028664 682.04070358 414.78240579 687.10062269 409.0703125 692.203125 C408.24660156 692.95335937 407.42289063 693.70359375 406.57421875 694.4765625 C383.24810391 715.69604957 358.54031869 735.70795261 332.07763672 752.89648438 C330.71918725 753.78074873 329.36412309 754.67023202 328.01220703 755.56445312 C297.10046607 775.98764794 263.50956569 790.83800323 229.0703125 804.203125 C228.26285583 804.51717285 227.45539917 804.8312207 226.62347412 805.15478516 C204.62132928 813.70951081 182.62927476 822.21368619 160.0703125 829.203125 C159.16829102 829.49316406 158.26626953 829.78320312 157.33691406 830.08203125 C154.81924924 830.88484614 152.29302214 831.64534006 149.7578125 832.390625 C149.07146729 832.61194092 148.38512207 832.83325684 147.67797852 833.0612793 C135.88383977 836.30824293 124.25454035 831.57679407 113.6953125 826.578125 C112.51485352 826.03542969 111.33439453 825.49273438 110.11816406 824.93359375 C106.75765339 823.37932295 103.41125989 821.79894361 100.0703125 820.203125 C99.27270508 819.82317383 98.47509766 819.44322266 97.65332031 819.05175781 C93.79591546 817.19838823 89.98123691 815.27283718 86.18505859 813.29736328 C83.75515166 812.04005055 81.31313182 810.80779835 78.87109375 809.57421875 C53.26727408 796.54546204 29.0244002 781.79722602 7.0703125 763.203125 C6.03874884 762.35556639 5.0061468 761.50927044 3.97265625 760.6640625 C-33.42083608 729.88362135 -62.57211642 682.33242383 -68.22900391 633.62597656 C-68.37260655 631.56930213 -68.49600097 629.51124192 -68.6171875 627.453125 C-69.05062317 623.30928951 -69.33886616 621.77586968 -72.35546875 618.8515625 C-75.4136486 616.78297687 -75.4136486 616.78297687 -78.69921875 615.015625 C-99.68568955 603.24086992 -117.82148888 575.66604449 -124.9296875 553.203125 C-126.14698694 548.23290656 -127.14043786 543.25858889 -127.9296875 538.203125 C-128.03192627 537.54884521 -128.13416504 536.89456543 -128.23950195 536.22045898 C-129.0031585 530.56784599 -128.88339083 525.06217736 -128.71240234 519.36938477 C-128.37707797 506.67778706 -129.55952312 496.78182594 -134.24609375 485.05957031 C-141.37377233 465.70283177 -136.79122795 441.53332287 -128.85693359 423.18554688 C-126.97214339 419.15592695 -124.7212431 415.33730446 -122.47387695 411.50195312 C-119.30920459 406.04676847 -116.58901563 400.44889203 -113.9921875 394.703125 C-113.61473389 393.87844727 -113.23728027 393.05376953 -112.84838867 392.20410156 C-112.31822144 391.01252441 -112.31822144 391.01252441 -111.77734375 389.796875 C-111.46804932 389.10271484 -111.15875488 388.40855469 -110.84008789 387.69335938 C-108.5899516 381.53852158 -107.5680616 375.3511884 -106.8515625 368.875 C-106.66220363 367.26765291 -106.47206847 365.66039712 -106.28125 364.05322266 C-106.18360352 363.22075012 -106.08595703 362.38827759 -105.98535156 361.53057861 C-103.44179799 340.08255071 -100.16979276 318.73149005 -93.31445312 298.17041016 C-91.21231174 291.71163209 -93.01791948 288.90318515 -95.9921875 283.015625 C-112.84764747 247.85957255 -117.98220094 204.59806476 -118.1328125 165.9765625 C-118.14326599 164.15396912 -118.14326599 164.15396912 -118.15393066 162.29455566 C-118.17123207 158.3890431 -118.17765183 154.4836743 -118.1796875 150.578125 C-118.18027664 149.91193398 -118.18086578 149.24574295 -118.18147278 148.55936432 C-118.19513809 126.65032445 -117.62931326 104.96435588 -114.9296875 83.203125 C-114.78515137 82.01831543 -114.64061523 80.83350586 -114.49169922 79.61279297 C-110.18179975 45.63474834 -103.00460809 10.20972774 -75.42578125 -12.89453125 C-48.90888551 -32.43984877 -23.23105446 -16.82452192 0 0 Z M390.0703125 40.203125 C388.09895598 42.57341138 386.26224668 45.02570548 384.4453125 47.515625 C383.93516602 48.2065625 383.42501953 48.8975 382.89941406 49.609375 C381.82346531 51.0702 380.75058661 52.53329077 379.68066406 53.99853516 C378.11739472 56.1386689 376.54367162 58.27077738 374.96875 60.40234375 C368.69187159 68.94677019 362.66478127 77.64917807 356.7578125 86.453125 C356.11231445 87.41025391 355.46681641 88.36738281 354.80175781 89.35351562 C346.16867809 102.3230271 339.17059806 115.86746581 332.34771729 129.84103394 C324.58072652 145.7070576 316.55800042 161.04967611 306.70019531 175.73388672 C304.29174908 179.38263225 302.02780519 183.12061443 299.75927734 186.85766602 C297.96761645 189.34573861 296.77538562 190.75728983 294.0703125 192.203125 C283.95509454 193.2820524 273.671864 191.91791364 263.6953125 190.265625 C263.04065002 190.16108002 262.38598755 190.05653503 261.71148682 189.94882202 C247.23430372 187.63113961 232.91659632 184.52373506 218.61181641 181.32641602 C199.41056736 177.04922452 180.65752553 175.02106433 160.99560547 175.07275391 C158.57382958 175.07811721 156.15223908 175.07277289 153.73046875 175.06640625 C130.8218939 175.05266324 109.74061159 177.95814502 89.0703125 188.203125 C87.07313915 189.16452481 85.07572371 190.12542182 83.078125 191.0859375 C57.14884779 203.68463872 34.03344894 218.14769531 11.97705078 236.61230469 C9.44247722 238.72693738 6.88248189 240.80956166 4.3203125 242.890625 C-0.19720097 246.57992767 -4.65336153 250.33727624 -9.0925293 254.12011719 C-12.50987472 257.02595074 -15.98160566 259.84731312 -19.4921875 262.640625 C-28.46923462 269.95331448 -36.48072283 278.35435489 -43.9296875 287.203125 C-44.63996094 288.00105469 -45.35023438 288.79898437 -46.08203125 289.62109375 C-51.64623771 296.01497119 -56.50872976 302.74148411 -61.2421875 309.765625 C-61.8287915 310.62760498 -62.41539551 311.48958496 -63.01977539 312.37768555 C-68.77912325 321.06150317 -73.20883984 329.87803903 -74.9296875 340.203125 C-75.09082031 341.12867188 -75.25195312 342.05421875 -75.41796875 343.0078125 C-75.76482143 345.04656491 -76.10175674 347.08702487 -76.4296875 349.12890625 C-76.74487877 351.06684006 -77.07603303 353.00230881 -77.4296875 354.93359375 C-78.42868341 360.46709454 -79.12206261 365.96983444 -79.62792969 371.56665039 C-80.68678712 383.23461105 -82.02998575 393.48064503 -87.98828125 403.76953125 C-102.19028307 428.72320458 -102.19028307 428.72320458 -106.9921875 456.515625 C-106.98541992 457.62647461 -106.98541992 457.62647461 -106.97851562 458.75976562 C-106.96680925 460.57425399 -106.94887648 462.38870034 -106.9296875 464.203125 C-103.6097826 462.77402687 -101.66981606 461.04476657 -99.2421875 458.390625 C-87.62246216 446.58165332 -73.67443456 437.93118424 -59.43164062 429.66162109 C-44.08003264 420.80775512 -44.08003264 420.80775512 -29.9296875 410.203125 C-29.19105469 409.59597656 -28.45242187 408.98882812 -27.69140625 408.36328125 C-24.28440348 405.5009148 -21.72610917 403.34663027 -19.9296875 399.203125 C-21.42900812 397.84820616 -22.92918804 396.49423822 -24.4296875 395.140625 C-25.3475 394.30789063 -26.2653125 393.47515625 -27.2109375 392.6171875 C-28.78324558 391.22108636 -30.37733624 389.84734447 -32.0234375 388.5390625 C-41.70829689 380.7991134 -52.54949377 366.43071443 -54.234375 353.9453125 C-55.29390394 340.76477248 -53.44581825 330.62073742 -44.82421875 320.29296875 C-37.3839065 312.085614 -27.92966098 304.71712917 -16.5625 303.625 C-8.83343738 303.26542983 -1.46843721 303.71941091 5.0703125 308.203125 C6.11058594 308.9146875 6.11058594 308.9146875 7.171875 309.640625 C16.95691042 317.26342413 20.50475469 328.27068015 22.0703125 340.203125 C22.39433524 344.58000363 22.35292984 348.82522246 22.0703125 353.203125 C21.98330078 354.77513672 21.98330078 354.77513672 21.89453125 356.37890625 C21.01168548 365.09036032 17.59698399 371.88348473 13.20996094 379.27832031 C12.06846593 381.20624375 10.96200812 383.15120082 9.859375 385.1015625 C5.72407096 392.31085765 1.29762762 398.75515976 -4.1796875 405.03125 C-6.11336609 407.17251575 -6.11336609 407.17251575 -6.9296875 410.203125 C-7.5896875 410.203125 -8.2496875 410.203125 -8.9296875 410.203125 C-10.43018686 411.68674194 -10.43018686 411.68674194 -11.9921875 413.640625 C-24.35410722 428.04604574 -39.08251624 438.33149147 -55.1953125 448.13964844 C-57.6121369 449.62158637 -59.99577544 451.14970001 -62.3671875 452.703125 C-63.04652344 453.1465625 -63.72585937 453.59 -64.42578125 454.046875 C-66.08374327 455.14748701 -66.08374327 455.14748701 -66.9296875 457.203125 C-65.80369141 457.04231445 -64.67769531 456.88150391 -63.51757812 456.71582031 C-58.8455393 456.13482678 -54.22729098 456.02416638 -49.5234375 456 C-48.64046997 455.99429993 -47.75750244 455.98859985 -46.84777832 455.98272705 C-44.98544492 455.97332879 -43.12309528 455.9667638 -41.26074219 455.96289062 C-38.46518477 455.95324745 -35.67038353 455.92220011 -32.875 455.890625 C-10.59349437 455.75857472 18.9234542 460.01324412 36.8828125 474.640625 C42.38672665 480.11985792 45.16598091 486.9865456 45.3203125 494.703125 C45.03730872 512.35227002 35.82798319 530.59801621 23.5078125 542.890625 C22.93160156 543.4371875 22.35539063 543.98375 21.76171875 544.546875 C20.02809617 546.24446386 18.49891607 548.0278276 16.9453125 549.890625 C13.70790866 553.64073985 10.1967368 557.02382089 6.5703125 560.390625 C5.76956299 561.13928833 5.76956299 561.13928833 4.95263672 561.90307617 C2.16479672 564.45923383 -0.64329036 566.7395658 -3.7734375 568.8671875 C-7.18132945 570.90991856 -7.18132945 570.90991856 -7.9296875 574.390625 C-5.72973872 582.77792973 1.25277015 587.96184353 8.3203125 592.453125 C35.44609463 608.0748095 65.06389903 613.85297054 95.68066406 605.86572266 C129.18020751 596.5770262 160.76595623 576.78218425 186.0703125 553.203125 C186.905625 552.49929688 186.905625 552.49929688 187.7578125 551.78125 C191.3838942 548.60842851 191.55400877 545.84985857 192.0703125 541.203125 C193.94988668 538.60752257 196.13208869 537.41210748 199.0703125 536.203125 C206.57446194 535.32517648 213.2382049 535.20622287 219.51953125 539.71875 C222.19763739 542.28217654 223.91204979 544.06125103 224.43359375 547.82421875 C224.41683594 548.75363281 224.40007812 549.68304687 224.3828125 550.640625 C224.37894531 551.56746094 224.37507813 552.49429688 224.37109375 553.44921875 C224.0243718 556.62375093 223.40439278 559.86904472 221.0703125 562.203125 C219.69195762 562.26612077 218.31284242 562.31278434 216.93359375 562.3515625 C211.21117562 562.94560077 208.8988247 565.63076739 205.2578125 569.828125 C196.78677364 578.91637557 187.21410693 586.08268992 177.0703125 593.203125 C176.45365723 593.63818359 175.83700195 594.07324219 175.20166016 594.52148438 C164.63777219 601.87831274 153.13500506 607.76841564 141.77099609 613.77148438 C139.55522824 614.94606969 137.35156259 616.13866602 135.15234375 617.34375 C101.52717338 635.18075794 63.38428401 638.94974291 26.9140625 628.484375 C12.73195639 623.91624398 -0.40930071 617.64453651 -12.18359375 608.44140625 C-13.84482076 607.01030069 -13.84482076 607.01030069 -15.9296875 607.203125 C-16.71586972 608.53661099 -17.45739899 609.89647684 -18.1796875 611.265625 C-22.34576867 617.88111068 -28.98931394 620.24633571 -35.9296875 623.203125 C-36.56599025 632.80826645 -31.97521905 645.20850062 -25.65234375 652.453125 C-24.79962891 653.319375 -24.79962891 653.319375 -23.9296875 654.203125 C-23.26839844 654.925 -22.60710937 655.646875 -21.92578125 656.390625 C-7.47308757 670.86777332 15.38881751 676.57543725 35.0703125 679.203125 C35.77953857 679.29811279 36.48876465 679.39310059 37.21948242 679.4909668 C58.87272841 682.01843231 81.91127426 681.41006616 103.0703125 676.203125 C104.23965332 675.92227051 104.23965332 675.92227051 105.43261719 675.63574219 C127.36519045 670.21115444 147.17470702 658.51008895 165.67089844 645.83203125 C168.60481639 643.84026278 171.55909359 641.87981942 174.515625 639.921875 C198.91523596 624.02316004 198.91523596 624.02316004 221.0703125 605.203125 C222.05064453 604.2455127 222.05064453 604.2455127 223.05078125 603.26855469 C225.18939505 601.17045991 227.31957347 599.06426084 229.4453125 596.953125 C230.11159668 596.2916748 230.77788086 595.63022461 231.46435547 594.94873047 C235.07113035 591.32925887 238.50296232 587.63539215 241.76342773 583.69995117 C243.65858772 581.52935041 245.68698888 579.8134788 248.0703125 578.203125 C249.0603125 578.203125 250.0503125 578.203125 251.0703125 578.203125 C250.54024465 583.84245798 249.02470302 588.24365512 246.5703125 593.328125 C246.21283936 594.07312256 245.85536621 594.81812012 245.48706055 595.58569336 C242.00644693 602.63992852 237.87555212 608.96707149 233.0703125 615.203125 C232.59464844 615.82541992 232.11898438 616.44771484 231.62890625 617.08886719 C221.88271046 629.73274907 211.27697271 642.07293919 198.0703125 651.203125 C196.6049489 652.31895233 195.14699232 653.44455241 193.6953125 654.578125 C192.94378906 655.16335938 192.19226563 655.74859375 191.41796875 656.3515625 C188.9718321 658.28079507 186.55287603 660.24132077 184.1328125 662.203125 C179.25800989 666.10446472 174.24468445 669.71135458 169.0703125 673.203125 C167.61818359 674.21826172 167.61818359 674.21826172 166.13671875 675.25390625 C124.69401123 703.26380341 71.43597093 711.90382641 22.53173828 702.69921875 C10.43511522 700.26117689 -0.71006456 696.81093737 -11.96582031 691.70629883 C-13.93173184 690.82121767 -15.92851199 690.00529291 -17.9296875 689.203125 C-18.5896875 689.533125 -19.2496875 689.863125 -19.9296875 690.203125 C-10.74036542 705.27976092 -10.74036542 705.27976092 0.0703125 719.203125 C0.76382813 720.01652344 1.45734375 720.82992187 2.171875 721.66796875 C11.65347167 732.53997624 22.64192223 741.49227466 34.0703125 750.203125 C34.65264648 750.65300781 35.23498047 751.10289062 35.83496094 751.56640625 C51.18111966 763.39342918 68.03032891 772.83635948 85.02099609 782.07568359 C86.92313542 783.12215481 88.80492107 784.19728459 90.68359375 785.28515625 C101.89842344 791.67181162 113.93009438 795.9111287 126.0703125 800.203125 C127.79894531 800.82767578 127.79894531 800.82767578 129.5625 801.46484375 C141.83544067 805.07790572 157.85950312 794.0284587 168.26171875 788.42578125 C197.03654692 772.62696702 223.17679762 754.02636269 248.8828125 733.7109375 C252.09030269 731.17984347 255.32724005 728.68837447 258.5703125 726.203125 C274.70120168 713.82857599 290.39852835 701.01022105 305.78515625 687.72216797 C317.11714679 677.93753064 328.59329118 668.32490004 340.3203125 659.015625 C355.73608131 646.71415292 371.05788471 633.93799692 383.0703125 618.203125 C384.16818571 616.82881873 385.26866483 615.45659201 386.37109375 614.0859375 C392.70652529 606.15353346 398.65632242 598.19028003 403.78686523 589.41723633 C407.05353883 583.89688425 411.56516576 577.42937796 418.05078125 575.6640625 C436.6820276 574.93859804 458.35510815 590.52198198 472.953125 600.83984375 C474.93088119 602.38358655 474.93088119 602.38358655 477.0703125 602.203125 C479.1166351 585.53801232 480.7512488 568.99477956 481.0703125 552.203125 C481.11115967 550.24705322 481.11115967 550.24705322 481.15283203 548.25146484 C481.22296693 544.64343426 481.26833384 541.03563216 481.29946899 537.42706299 C481.31306697 536.01697469 481.33122515 534.60692083 481.35458374 533.19696045 C481.51389592 522.76853943 480.27880027 513.3482389 478.0703125 503.203125 C477.67929396 501.31545461 477.28975511 499.4274765 476.90234375 497.5390625 C476.64541748 496.3013208 476.64541748 496.3013208 476.38330078 495.03857422 C474.57503812 486.14897855 472.90205429 477.30467151 474.0703125 468.203125 C474.7303125 467.213125 475.3903125 466.223125 476.0703125 465.203125 C483.09108816 464.099292 489.20481529 464.64078201 495.28125 468.3125 C498.25086747 469.79082486 500.81515617 469.47438803 504.0703125 469.203125 C503.46504426 465.53918547 502.44467981 462.52339445 500.84765625 459.17578125 C500.39592041 458.22630615 499.94418457 457.27683105 499.47875977 456.29858398 C498.99334717 455.29770752 498.50793457 454.29683105 498.0078125 453.265625 C497.50757568 452.22801025 497.00733887 451.19039551 496.49194336 450.12133789 C493.29698004 443.5578109 489.93151998 437.18996753 486.22265625 430.90234375 C483.42682453 426.15250805 480.82300339 421.29728432 478.1953125 416.453125 C474.91154228 410.40101829 471.60875479 404.36324239 468.22583008 398.3659668 C463.59638018 390.14542226 459.30251921 381.79201186 455.12060547 373.33544922 C451.87356129 366.77542516 448.52142958 360.2823375 445.06225586 353.83178711 C444.05859474 351.95884727 443.06218477 350.08233278 442.0703125 348.203125 C441.72274902 347.54876465 441.37518555 346.8944043 441.01708984 346.22021484 C438.72799712 341.79934433 436.94636148 337.36937862 435.5703125 332.578125 C435.26057495 331.50546387 435.26057495 331.50546387 434.94458008 330.41113281 C433.25487666 324.316525 431.93755964 318.16496387 430.7578125 311.953125 C430.58636719 311.07962402 430.41492188 310.20612305 430.23828125 309.30615234 C428.04923183 297.07711896 429.15412634 285.91161319 431.6953125 273.828125 C431.96870678 272.47562839 432.24064629 271.122837 432.51123047 269.76977539 C433.21346423 266.26870014 433.92790399 262.77025255 434.64599609 259.2723999 C438.59997836 239.98991132 442.05595175 220.77346508 444.45166016 201.22998047 C445.22059141 194.9601464 446.01220864 188.69316936 446.80078125 182.42578125 C448.17841415 171.46333784 449.55087967 160.50026317 450.90852356 149.5353241 C451.49067088 144.8367141 452.07452746 140.13865384 452.69042969 135.44433594 C457.36613066 99.6847206 459.88790308 53.99571592 438.1328125 22.578125 C435.19695961 18.99669189 432.3149081 17.05531217 428.0703125 15.203125 C413.82569366 13.79740604 399.00779766 30.59751422 390.0703125 40.203125 Z " fill="#192C34" transform="translate(186.9296875,22.796875)"/>
<path d="M0 0 C1.69731745 1.25804233 3.40964238 2.49578069 5.12402344 3.73046875 C19.94598749 14.53897873 32.98385977 27.20771089 45.85058594 40.23046875 C47.3234156 41.71336516 48.79672073 43.1957895 50.27050781 44.67773438 C53.823512 48.25242049 57.37011356 51.83334074 60.91308594 55.41796875 C60.25308594 55.74796875 59.59308594 56.07796875 58.91308594 56.41796875 C56.13981574 55.38149403 53.44372458 54.27310475 50.72558594 53.10546875 C41.633266 49.3372886 32.39577464 46.13452187 23.03808594 43.10546875 C22.39167145 42.89336761 21.74525696 42.68126648 21.07925415 42.46273804 C9.66054592 38.72530136 -1.90516533 35.34560899 -13.96191406 34.73046875 C-15.13496094 34.66472656 -16.30800781 34.59898437 -17.51660156 34.53125 C-18.36480469 34.49386719 -19.21300781 34.45648437 -20.08691406 34.41796875 C-22.86176582 38.58024638 -21.98563448 41.73272773 -21.08691406 46.41796875 C-19.02324359 55.53625188 -15.78912094 63.70723662 -11.67285156 72.04296875 C-6.03397277 84.04294727 -6.83460661 97.85618578 -9.77441406 110.60546875 C-9.92281738 111.26264893 -10.0712207 111.9198291 -10.22412109 112.59692383 C-12.44278293 121.15384493 -17.51451816 128.2940249 -22.64941406 135.35546875 C-27.00052607 141.41432268 -31.18598139 147.55425036 -35.27441406 153.79296875 C-39.8321896 160.69800234 -44.66973522 167.1540712 -50.08691406 173.41796875 C-50.99832424 174.50024736 -51.90840784 175.58364407 -52.81738281 176.66796875 C-59.70555635 184.84601485 -66.90652291 192.69556571 -74.24853516 200.46630859 C-76.13618348 202.47027416 -78.01317487 204.48375336 -79.88769531 206.5 C-85.64572046 212.68541587 -91.42931284 218.81158017 -97.46191406 224.73046875 C-102.77636891 229.96351291 -107.47101734 235.56612154 -112.08691406 241.41796875 C-120.47012163 251.8347991 -129.22043022 261.63369998 -138.64941406 271.10546875 C-139.35775391 271.81848145 -140.06609375 272.53149414 -140.79589844 273.26611328 C-145.39746493 277.85381964 -150.15445791 282.19005582 -155.08691406 286.41796875 C-156.55064453 287.70380859 -156.55064453 287.70380859 -158.04394531 289.015625 C-164.35280831 294.46144245 -170.8449632 299.51727895 -177.58691406 304.41796875 C-190.01104013 313.47035559 -201.29347788 323.37898387 -212.45800781 333.9375 C-213.07659668 334.51580566 -213.69518555 335.09411133 -214.33251953 335.68994141 C-216.10491582 337.38087972 -216.10491582 337.38087972 -217.61083984 339.23583984 C-219.05957031 340.9296875 -219.05957031 340.9296875 -222.08691406 343.41796875 C-228.86958961 343.64189095 -235.12586051 340.87048979 -241.39941406 338.48046875 C-242.45829834 338.07860352 -243.51718262 337.67673828 -244.6081543 337.26269531 C-253.65049736 333.74346901 -262.15265476 329.57612418 -270.59863281 324.81738281 C-273.30257827 323.29667879 -276.02215763 321.80635005 -278.74316406 320.31640625 C-300.8960171 308.09547388 -321.02353084 294.0355281 -340.08691406 277.41796875 C-340.60672852 276.96808594 -341.12654297 276.51820313 -341.66210938 276.0546875 C-356.25570617 263.35505593 -367.10652599 248.47619333 -376.08691406 231.41796875 C-372.45775853 232.57188476 -368.90547273 233.86164211 -365.36425781 235.2578125 C-355.72532218 239.05800301 -346.34992315 242.71691752 -336.08691406 244.41796875 C-335.01352783 244.61664551 -335.01352783 244.61664551 -333.91845703 244.81933594 C-284.63472794 253.75082013 -230.65390751 245.85932662 -189.01245117 217.00976562 C-187.35830512 215.82833531 -185.72033467 214.6278551 -184.08691406 213.41796875 C-183.52665527 213.00885254 -182.96639648 212.59973633 -182.38916016 212.17822266 C-177.19177975 208.37777845 -172.11072381 204.44511946 -167.08691406 200.41796875 C-165.71373943 199.35311069 -164.33875411 198.29058324 -162.96191406 197.23046875 C-161.33599794 195.96080772 -159.71104671 194.68991038 -158.08691406 193.41796875 C-157.2503125 192.77085937 -156.41371094 192.12375 -155.55175781 191.45703125 C-135.44717651 175.52733354 -118.56966675 155.36587375 -108.08691406 131.85546875 C-107.63179443 130.83634399 -107.63179443 130.83634399 -107.16748047 129.79663086 C-105.70975108 126.38283602 -105.08691406 124.19383337 -105.08691406 120.41796875 C-108.7625212 121.00706154 -110.66895977 122.50220562 -113.39941406 124.98046875 C-114.11742187 125.62113281 -114.83542969 126.26179687 -115.57519531 126.921875 C-117.60500929 128.93906183 -119.46941769 130.97462235 -121.33691406 133.13671875 C-125.30639942 137.72321702 -129.50115974 142.05266729 -133.77441406 146.35546875 C-134.86399414 147.47598633 -134.86399414 147.47598633 -135.97558594 148.61914062 C-146.46029839 159.17672684 -158.92209121 167.12478286 -171.27441406 175.29296875 C-172.75293458 176.27355157 -174.23136823 177.25426539 -175.7097168 178.23510742 C-179.2295399 180.56858489 -182.75273703 182.89690241 -186.27746582 185.22296143 C-187.85547133 186.26511787 -189.43178821 187.30983029 -191.0078125 188.35498047 C-204.16661019 197.07760864 -217.53760171 205.2072929 -232.08691406 211.41796875 C-233.18003906 211.93359375 -234.27316406 212.44921875 -235.39941406 212.98046875 C-241.1893052 215.23754495 -247.05167464 216.95175033 -253.08691406 218.41796875 C-253.85438965 218.60568848 -254.62186523 218.7934082 -255.41259766 218.98681641 C-280.01849675 224.72803054 -307.36724978 224.49983806 -332.08691406 219.41796875 C-333.19808594 219.20140625 -334.30925781 218.98484375 -335.45410156 218.76171875 C-353.83172018 214.66697084 -372.92990366 206.82947391 -384.39941406 191.29296875 C-389.03480364 183.80503174 -392.54847519 174.25550672 -392.08691406 165.41796875 C-391.14589844 165.01707031 -390.20488281 164.61617187 -389.23535156 164.203125 C-381.2960712 160.64160847 -375.98746481 157.60912531 -372.08691406 149.41796875 C-368.51181317 150.70775996 -365.78718176 152.24192059 -362.77441406 154.54296875 C-337.19752622 172.78502843 -302.21374869 180.18533777 -271.19970703 176.03125 C-264.71690087 174.90243124 -258.39987406 173.26053466 -252.08691406 171.41796875 C-250.73073975 171.02448242 -250.73073975 171.02448242 -249.34716797 170.62304688 C-238.16482967 167.3000217 -227.65609653 163.22992661 -217.40283203 157.67089844 C-214.67369134 156.19441204 -211.9290128 154.74861958 -209.18457031 153.30078125 C-193.68373819 145.09682032 -193.68373819 145.09682032 -179.08691406 135.41796875 C-178.43674316 134.93859863 -177.78657227 134.45922852 -177.11669922 133.96533203 C-162.79343415 123.43324788 -162.79343415 123.43324788 -150.02441406 111.125 C-146.57612895 107.3197635 -144.47163587 105.02951399 -139.21191406 104.54296875 C-138.10203125 104.54683594 -138.10203125 104.54683594 -136.96972656 104.55078125 C-134.83912093 104.60724151 -134.83912093 104.60724151 -133.08691406 102.41796875 C-131.36967997 97.31086995 -130.68291172 90.43173239 -132.99316406 85.47265625 C-136.50783208 80.98920154 -140.94853764 78.68769578 -146.52441406 77.984375 C-155.64953085 77.82615987 -155.64953085 77.82615987 -163.08691406 82.41796875 C-164.44839722 83.56362704 -164.44839722 83.56362704 -164.34863281 86.63671875 C-166.81485225 99.2679379 -187.08887862 110.68111868 -197.08691406 117.41796875 C-203.02848825 121.1923386 -209.15154745 124.61489775 -215.35107422 127.94433594 C-218.17653519 129.46624228 -220.98085715 131.02327994 -223.78613281 132.58203125 C-236.15229501 139.35432483 -248.46245627 144.73461243 -262.08691406 148.41796875 C-262.78300781 148.60713867 -263.47910156 148.79630859 -264.19628906 148.99121094 C-291.5947519 156.07004607 -320.50746805 150.23129333 -344.77050781 136.42578125 C-352.50108548 131.74554931 -361.44421684 126.06474045 -364.08691406 116.98046875 C-362.73238141 112.15494616 -360.31612873 110.81576891 -356.34863281 107.91796875 C-352.26117988 104.88546673 -348.60247977 101.40098227 -344.89941406 97.91796875 C-344.23490234 97.30115234 -343.57039063 96.68433594 -342.88574219 96.04882812 C-338.31155065 91.74718027 -334.15383388 87.19810019 -330.08691406 82.41796875 C-329.3534375 81.58910156 -328.61996094 80.76023437 -327.86425781 79.90625 C-321.36961345 72.22574701 -317.38755249 63.71449397 -314.33691406 54.16796875 C-313.92441406 52.93046875 -313.51191406 51.69296875 -313.08691406 50.41796875 C-305.48034717 46.6146853 -292.22875706 49.7479289 -283.96191406 50.41796875 C-271.17342306 51.44772755 -258.87843943 51.54887509 -246.08691406 50.54296875 C-244.98863281 50.46433594 -243.89035156 50.38570312 -242.75878906 50.3046875 C-215.64403353 48.21646581 -194.52554751 37.36084508 -173.41113281 20.78515625 C-158.92031345 9.42097301 -143.74423435 -1.37217541 -127.71191406 -10.45703125 C-126.76711182 -10.99312012 -126.76711182 -10.99312012 -125.80322266 -11.54003906 C-83.17653718 -35.18060461 -38.06516019 -28.24482082 0 0 Z " fill="#FDC415" transform="translate(543.0869140625,480.58203125)"/>
<path d="M0 0 C17.81964669 1.50628592 35.62135718 10.96541274 50.13671875 21.01953125 C51.19246094 21.71820313 52.24820312 22.416875 53.3359375 23.13671875 C60.4702159 27.89602248 66.86368076 33.16616833 73.13671875 39.01953125 C74.4216687 40.13150717 75.71262674 41.23661044 77.01171875 42.33203125 C81.21102761 45.92017309 84.33180245 49.22779924 87.13671875 54.01953125 C88.21953125 55.34984375 88.21953125 55.34984375 89.32421875 56.70703125 C91.13671875 59.01953125 91.13671875 59.01953125 91.13671875 61.01953125 C91.79671875 61.01953125 92.45671875 61.01953125 93.13671875 61.01953125 C94.41772461 62.44067383 94.41772461 62.44067383 95.8515625 64.4140625 C96.37298828 65.12240234 96.89441406 65.83074219 97.43164062 66.56054688 C98.2447168 67.68493164 98.2447168 67.68493164 99.07421875 68.83203125 C100.14363709 70.29847915 101.21517977 71.76338073 102.2890625 73.2265625 C103.00050415 74.20846558 103.00050415 74.20846558 103.72631836 75.21020508 C105.30108222 77.30685503 105.30108222 77.30685503 108.13671875 80.01953125 C105.49671875 75.72953125 102.85671875 71.43953125 100.13671875 67.01953125 C101.62171875 66.02953125 101.62171875 66.02953125 103.13671875 65.01953125 C105.07887359 68.73487461 107.01762221 72.45196995 108.95336914 76.1706543 C109.61098679 77.43284811 110.26949821 78.6945767 110.92895508 79.95581055 C111.88213394 81.77918904 112.83197907 83.60427205 113.78125 85.4296875 C114.35206299 86.52418213 114.92287598 87.61867676 115.51098633 88.74633789 C120.13671875 98.05962736 120.13671875 98.05962736 120.13671875 102.01953125 C115.78714303 102.38199589 113.27019665 102.29061151 109.51171875 100.01953125 C104.18314483 97.07203269 98.06101382 97.08809109 92.13671875 98.01953125 C87.1505535 105.49877912 90.3069902 117.03339929 91.94921875 125.39453125 C92.28573099 127.04885825 92.62563212 128.70249917 92.96875 130.35546875 C93.14905762 131.23436768 93.32936523 132.1132666 93.51513672 133.01879883 C93.97577882 135.24258206 94.45102364 137.46335128 94.93408203 139.68237305 C96.9458948 149.25687378 97.5491465 158.27764369 97.38671875 168.08203125 C97.37271053 169.53466099 97.3594574 170.98729819 97.34692383 172.43994141 C97.30358359 176.63387585 97.22428314 180.82628521 97.13671875 185.01953125 C97.11593262 186.11346191 97.09514648 187.20739258 97.07373047 188.33447266 C96.72792682 203.998097 95.04517853 219.47716409 93.13671875 235.01953125 C88.68531549 233.32531919 84.86864191 231.03967538 80.88671875 228.45703125 C59.18482206 214.24800456 59.18482206 214.24800456 34.55078125 208.35546875 C26.6392864 210.53176992 23.00110617 216.66688438 19.01171875 223.26953125 C12.91740747 232.98109401 6.32132113 242.08993625 -0.86328125 251.01953125 C-1.34587402 251.62458496 -1.8284668 252.22963867 -2.32568359 252.85302734 C-13.56520125 266.83595829 -26.81213143 278.91243187 -40.86328125 290.01953125 C-43.53539964 292.17949952 -46.19895444 294.34996373 -48.86328125 296.51953125 C-50.24723985 297.64472313 -51.63135146 298.76972684 -53.015625 299.89453125 C-53.67546387 300.43078125 -54.33530273 300.96703125 -55.01513672 301.51953125 C-56.60964643 302.81367493 -58.20690879 304.10442573 -59.8046875 305.39453125 C-68.27065141 312.25814431 -76.4559251 319.43987834 -84.67382812 326.59619141 C-92.58368637 333.47252397 -100.63478007 340.1045159 -108.92382812 346.51855469 C-111.80110015 348.74532563 -114.67172906 350.98061681 -117.54321289 353.21484375 C-119.09402661 354.42115913 -120.64529877 355.62688537 -122.19702148 356.83203125 C-126.15567532 359.90730055 -130.10542221 362.9928899 -134.03808594 366.10131836 C-136.97167726 368.4178409 -139.91552283 370.72107151 -142.86328125 373.01953125 C-143.6404248 373.62555176 -144.41756836 374.23157227 -145.21826172 374.85595703 C-225.85987275 437.53599014 -225.85987275 437.53599014 -251.86328125 435.01953125 C-251.15816406 434.31570313 -250.45304687 433.611875 -249.7265625 432.88671875 C-247.82118938 430.98201583 -245.92358478 429.06999622 -244.03125 427.15234375 C-238.48477344 421.54492705 -232.89521354 416.10828867 -226.86328125 411.01953125 C-225.96867187 410.23578125 -225.0740625 409.45203125 -224.15234375 408.64453125 C-217.78359952 403.10161287 -211.1928816 397.98393301 -204.36328125 393.01953125 C-190.5845675 382.98017345 -178.15561157 371.81968225 -165.86328125 360.01953125 C-165.23711914 359.42205078 -164.61095703 358.82457031 -163.96582031 358.20898438 C-156.51135826 351.06627589 -149.81487598 343.70359116 -143.546875 335.50390625 C-135.55115542 325.05267061 -126.66781848 315.61153569 -117.26928711 306.41113281 C-113.11126515 302.3317724 -109.162834 298.16569724 -105.36645508 293.74755859 C-103.62028391 291.74018495 -101.776929 289.86719115 -99.86328125 288.01953125 C-96.74908166 284.94092251 -93.81078355 281.7807697 -90.9609375 278.45703125 C-89.29749243 276.52408949 -87.6167233 274.61219701 -85.921875 272.70703125 C-74.75655053 260.09652573 -65.1842497 246.72035265 -55.9362793 232.65356445 C-53.40347456 228.80219794 -50.87553618 224.9727947 -48.11328125 221.28125 C-37.60032254 207.11987963 -34.92733182 189.36282949 -36.86328125 172.01953125 C-38.12171469 166.70808228 -40.47406056 161.90978346 -42.86328125 157.01953125 C-52.0807851 135.73148663 -52.0807851 135.73148663 -49.86328125 126.01953125 C-47.86328125 124.01953125 -47.86328125 124.01953125 -45.34375 123.8671875 C-27.85842294 125.00798583 -11.53366128 130.27580967 4.94921875 135.89453125 C5.68208099 136.14288727 6.41494324 136.39124329 7.17001343 136.64712524 C17.74285852 140.2489515 27.96883069 144.39893293 38.13671875 149.01953125 C33.16993038 111.02507467 26.23865068 75.96974497 11.55419922 40.47167969 C10.27419947 37.3543534 9.02542343 34.22773203 7.796875 31.08984375 C4.59631474 22.91610523 1.36467304 15.0061093 -2.9296875 7.33203125 C-3.99493876 4.69341726 -3.92550405 3.61994555 -2.86328125 1.01953125 C-1.86328125 0.01953125 -1.86328125 0.01953125 0 0 Z " fill="#DA4D0D" transform="translate(570.86328125,389.98046875)"/>
<path d="M0 0 C15.65743439 14.22931019 25.77109487 29.64871838 27.62890625 51.33203125 C28.09193476 66.70101588 22.00012887 77.57855485 11.8203125 88.6328125 C-11.59050226 112.45173972 -52.71065707 129.60167641 -86.04296875 130.30859375 C-95.59798208 130.38194666 -105.12939961 130.34010284 -114.64453125 129.390625 C-115.34239746 129.3289917 -116.04026367 129.2673584 -116.75927734 129.20385742 C-125.9732518 128.1262454 -136.58962868 122.26017093 -142.35546875 114.98046875 C-143.55644058 113.06793846 -144.64440522 111.1641358 -145.64453125 109.140625 C-145.97453125 108.480625 -146.30453125 107.820625 -146.64453125 107.140625 C-148.29980583 86.54248845 -144.99947232 65.97498187 -139.64453125 46.140625 C-139.37817871 45.13008057 -139.37817871 45.13008057 -139.10644531 44.09912109 C-135.03338012 28.92858685 -128.83267561 16.34871258 -117.64453125 5.140625 C-117.05542969 4.45742188 -116.46632813 3.77421875 -115.859375 3.0703125 C-106.82890847 -7.05174889 -90.48713968 -15.71492412 -76.89355469 -16.74707031 C-52.7097612 -17.95468484 -19.44601679 -16.29356598 0 0 Z " fill="#FDC415" transform="translate(448.64453125,314.859375)"/>
<path d="M0 0 C3.87266334 1.4892547 7.47817174 3.40406334 11.125 5.375 C12.6565271 6.19049316 12.6565271 6.19049316 14.21899414 7.02246094 C22.15712005 11.34237506 29.22384882 16.01439979 36 22 C36.72703125 22.61746094 37.4540625 23.23492187 38.203125 23.87109375 C60.30682903 44.10381496 74.87084856 79.95023713 87.46533203 106.58447266 C91.24341108 114.52620274 95.18111222 122.37963521 99.19866943 130.20227051 C99.88854229 131.54597061 100.57663245 132.89058779 101.26275635 134.23620605 C105.44491366 142.4285701 109.89027736 150.33739808 115 158 C112.3768862 160.6231138 109.30128369 161.90938507 106 163.5 C98.81214549 167.01721368 91.81292843 170.81319834 84.85351562 174.76171875 C84.13228516 175.1690625 83.41105469 175.57640625 82.66796875 175.99609375 C82.03141357 176.35888428 81.3948584 176.7216748 80.73901367 177.09545898 C79 178 79 178 76 179 C75.48518066 177.55355103 75.48518066 177.55355103 74.95996094 176.07788086 C71.28963315 165.93622361 67.00611753 156.23713152 62.25 146.5625 C61.8996167 145.84520721 61.5492334 145.12791443 61.18823242 144.3888855 C49.20491934 119.07456131 49.20491934 119.07456131 30.70703125 98.484375 C28.80702462 96.83219532 27.24739378 95.04949469 25.625 93.125 C17.51829907 83.56315939 17.51829907 83.56315939 6.4375 78.5625 C3.84804538 78.74261089 3.84804538 78.74261089 2.52734375 80.94921875 C0.53156178 84.93567838 -0.67559321 88.96537453 -1.875 93.25 C-2.25918091 94.60774536 -2.25918091 94.60774536 -2.65112305 95.99291992 C-15.07328895 141.23385715 -9.94748047 179.72220815 1.44140625 224.33984375 C1.65388 225.17966293 1.86635376 226.01948212 2.08526611 226.88475037 C3.32579333 231.69639091 4.75155481 236.38649306 6.41767883 241.06874084 C7.37169684 244.23272683 7.23225641 245.92349405 6 249 C3.68546309 251.76462814 1.07498266 254.11766236 -1.625 256.5 C-2.32496094 257.13808594 -3.02492187 257.77617187 -3.74609375 258.43359375 C-5.1388794 259.6971785 -6.54148257 260.95003368 -7.95410156 262.19140625 C-9.30438931 263.38507351 -10.63525958 264.60111957 -11.94433594 265.83984375 C-12.54793945 266.39800781 -13.15154297 266.95617187 -13.7734375 267.53125 C-14.30114746 268.03205078 -14.82885742 268.53285156 -15.37255859 269.04882812 C-17 270 -17 270 -19.10839844 269.75048828 C-24.15494489 267.74828335 -26.54908787 261.01100396 -28.61328125 256.3828125 C-30.16820842 252.62192502 -31.59045818 248.81750909 -33 245 C-33.309375 244.21882812 -33.61875 243.43765625 -33.9375 242.6328125 C-36.25815658 236.42022144 -37.18230742 229.89697289 -38.25390625 223.37890625 C-38.76265592 220.29239809 -39.35516021 217.23440113 -39.9921875 214.171875 C-41.0998096 208.70624046 -41.85677173 203.21757181 -42.5625 197.6875 C-42.68818359 196.74455078 -42.81386719 195.80160156 -42.94335938 194.83007812 C-44.48586968 182.91802213 -45.15942845 171.08257067 -45.203125 159.07421875 C-45.21018463 157.78035248 -45.21724426 156.48648621 -45.22451782 155.15341187 C-45.24405232 150.99810219 -45.24920973 146.84285129 -45.25 142.6875 C-45.25029457 141.97997967 -45.25058914 141.27245934 -45.25089264 140.54349899 C-45.25782176 37.59811925 -45.25782176 37.59811925 -17.1484375 8.09765625 C-7.55523986 -1.26879308 -7.55523986 -1.26879308 0 0 Z " fill="#F07B0C" transform="translate(141,28)"/>
<path d="M0 0 C7.51753309 5.94409593 9.70885245 14.65065703 10.79925537 23.82064819 C11.12788494 27.38836232 11.14225865 30.93895674 11.1328125 34.51953125 C11.13506332 35.72480972 11.13506332 35.72480972 11.13735962 36.95443726 C11.13971235 39.57384231 11.13344457 42.19310857 11.125 44.8125 C11.12167664 46.16899155 11.12167664 46.16899155 11.11828613 47.55288696 C11.09977323 54.03546419 11.05558767 60.51764477 11 67 C10.99063416 68.2287384 10.99063416 68.2287384 10.9810791 69.4822998 C10.82036494 89.40778503 9.44237856 108.65615351 6.50537109 128.39892578 C5.66666551 134.37520952 5.05317958 140.37233069 4.4375 146.375 C4.19182465 148.69535684 3.94573792 151.01567016 3.69921875 153.3359375 C3.35529106 156.58940901 3.01552352 159.84288316 2.69384766 163.09863281 C1.48252977 175.25133269 -0.46939013 187.00341927 -3.375 198.875 C-3.65504883 200.03386719 -3.93509766 201.19273437 -4.22363281 202.38671875 C-7.96332684 216.93891432 -7.96332684 216.93891432 -12 222 C-14.71627471 222.86921833 -16.20067231 223.3423281 -18.8515625 222.20703125 C-20.97468235 220.53752952 -22.99830522 218.81518079 -25 217 C-25.49000488 216.56929199 -25.98000977 216.13858398 -26.48486328 215.69482422 C-30.15253084 212.4076248 -33.33600078 209.16151357 -36 205 C-36.19994631 201.02392475 -34.81504943 198.46026967 -33 195 C-22.04093067 169.00241531 -18.40509681 132.34790243 -26 105 C-27.31386584 101.67665342 -27.31386584 101.67665342 -29 99 C-31.80166093 97.65776386 -31.80166093 97.65776386 -35 98 C-40.66122204 100.9573548 -43.07175314 104.70235552 -46.125 110.0625 C-47.08198658 111.68178626 -48.04036812 113.30024876 -49 114.91796875 C-49.49113281 115.75376465 -49.98226562 116.58956055 -50.48828125 117.45068359 C-56.8434619 128.16786646 -63.45933 138.68968703 -71.1015625 148.5390625 C-72.75988985 150.68874611 -74.29674359 152.87433139 -75.8125 155.125 C-77.87610689 157.83716906 -78.9073329 158.82691938 -82 160 C-82.99 160.99 -82.99 160.99 -84 162 C-86.66666667 159.33333333 -89.33333333 156.66666667 -92 154 C-91.8131665 153.45980225 -91.62633301 152.91960449 -91.43383789 152.36303711 C-89.82378242 147.63245129 -88.39939319 142.89222324 -87.11254883 138.06469727 C-78.89910478 107.61999998 -65.10499225 80.57105347 -48.70703125 53.82080078 C-46.78006009 50.6365581 -44.93702065 47.41149747 -43.10327148 44.1730957 C-15.72271138 -3.93067785 -15.72271138 -3.93067785 0 0 Z " fill="#1A2C34" transform="translate(601,88)"/>
<path d="M0 0 C11.90402943 6.92678635 20.90853012 15.96872934 25.0625 29.25 C27.19022888 38.33770949 27.24273853 46.07587215 23.0625 54.5234375 C18.34356849 60.4417641 11.84162791 63.88978363 4.9375 66.6875 C3.73843018 67.18117065 3.73843018 67.18117065 2.51513672 67.68481445 C-58.76588667 92.22828421 -58.76588667 92.22828421 -79.38671875 84.96875 C-84.81938016 81.74019693 -89.49128409 76.80020903 -91.8125 70.875 C-93.99635763 49.01102998 -85.15646965 27.54773128 -71.625 10.625 C-64.04252442 2.47254334 -54.42667408 -3.01841246 -43.8125 -6.125 C-30.07421372 -10.70442876 -12.47749325 -6.2240326 0 0 Z " fill="#192D35" transform="translate(424.8125,341.125)"/>
<path d="M0 0 C6.89683759 4.8380801 11.60374441 11.38765813 13.91796875 19.52734375 C16.99607265 37.48823868 13.24592932 55.82524729 6.54296875 72.52734375 C5.88296875 73.18734375 5.22296875 73.84734375 4.54296875 74.52734375 C4.50429688 72.65755859 4.50429688 72.65755859 4.46484375 70.75 C3.96912518 53.91220346 2.89180394 38.48493395 -9.18359375 25.69921875 C-16.12932981 19.16578665 -23.54592298 17.90618484 -32.81811523 17.90112305 C-44.17951184 18.36210433 -53.30557242 24.43648291 -61.3359375 32.203125 C-70.46673943 42.20833153 -73.51913302 52.22225535 -73.05859375 65.5625 C-72.38295454 73.53596819 -68.74013155 79.92332488 -64.45703125 86.52734375 C-63.77125 87.59597656 -63.08546875 88.66460937 -62.37890625 89.765625 C-57.50903531 96.7187185 -51.7011428 102.34255473 -45.375 107.93359375 C-42.97947008 110.06295368 -40.69219238 112.23265049 -38.45703125 114.52734375 C-47.40532686 126.09081027 -59.65971392 132.96702291 -72.02734375 140.29296875 C-89.91630065 150.91067873 -107.87412247 161.79256627 -122.07421875 177.234375 C-123.45703125 178.52734375 -123.45703125 178.52734375 -125.45703125 178.52734375 C-126.58464943 154.4088437 -116.0556592 135.17331592 -104.45703125 114.52734375 C-98.36490076 103.45326601 -98.07404309 89.76453625 -96.91796875 77.3828125 C-95.06456081 57.56229595 -95.06456081 57.56229595 -91.45703125 49.52734375 C-90.79703125 49.52734375 -90.13703125 49.52734375 -89.45703125 49.52734375 C-89.18503906 48.96402344 -88.91304687 48.40070313 -88.6328125 47.8203125 C-77.99835556 27.08135495 -61.03049251 4.40007156 -38.45703125 -3.47265625 C-25.3763115 -7.24698893 -11.88944075 -7.1261036 0 0 Z " fill="#FCC315" transform="translate(205.45703125,308.47265625)"/>
<path d="M0 0 C3.62915553 1.15391601 7.18144133 2.44367336 10.72265625 3.83984375 C20.36159188 7.64003426 29.73699091 11.29894877 40 13 C40.71559082 13.13245117 41.43118164 13.26490234 42.16845703 13.40136719 C78.53362908 19.9916753 114.70829471 16.45381961 149.5559082 4.78442383 C151.69233175 4.09874519 153.81660095 3.51267393 156 3 C154.86860469 6.39418594 153.45745344 7.32669179 150.734375 9.4921875 C148.83850879 11.14039551 147.25705027 12.90345037 145.625 14.8125 C138.79659178 22.77400653 131.26190573 29.55054214 123 36 C122.40654785 36.4645459 121.8130957 36.9290918 121.20166016 37.40771484 C112.15106986 44.449646 102.85375087 50.80861575 93.04833984 56.74707031 C90.88920203 58.06777296 88.74979071 59.41645889 86.61328125 60.7734375 C85.89333984 61.22960449 85.17339844 61.68577148 84.43164062 62.15576172 C83.05767339 63.02731282 81.68518141 63.90119569 80.31445312 64.77783203 C77.62973257 66.4707052 75.05772199 67.97694236 72.10546875 69.15625 C69.82313039 69.80050116 69.82313039 69.80050116 69 72 C60.11225501 65.58307211 51.37747426 59.07971891 43 52 C42.43361816 51.52385254 41.86723633 51.04770508 41.28369141 50.55712891 C39.43512111 49.00108831 37.5916756 47.4391929 35.75 45.875 C35.18337646 45.39619385 34.61675293 44.9173877 34.03295898 44.42407227 C27.1401322 38.52670843 21.10864646 32.22970406 15.625 25 C15.06917236 24.27103516 14.51334473 23.54207031 13.94067383 22.79101562 C0 4.20077258 0 4.20077258 0 0 Z " fill="#E86B0A" transform="translate(167,712)"/>
<path d="M0 0 C3.95886727 1.63518431 5.16289615 4.45474241 6.875 8.1875 C14.02345155 32.19349401 9.50931616 60.14754867 4.375 84.0625 C4.17366455 85.00061523 3.9723291 85.93873047 3.76489258 86.90527344 C2.65582781 91.73301946 1.24301642 95.80009181 -1.125 100.1875 C-1.455 101.445625 -1.785 102.70375 -2.125 104 C-2.62 105.5778125 -2.62 105.5778125 -3.125 107.1875 C-6.59363134 108.34371045 -7.924623 107.82738434 -11.16796875 106.33203125 C-14.91616879 104.13997015 -17.95198651 101.12269394 -21.125 98.1875 C-22.34955543 97.14041637 -23.57849075 96.09842534 -24.8125 95.0625 C-27.72911127 92.56725018 -30.44307377 89.93647439 -33.125 87.1875 C-33.72828125 86.61773437 -34.3315625 86.04796875 -34.953125 85.4609375 C-35.58734375 84.85507812 -36.2215625 84.24921875 -36.875 83.625 C-37.46796875 83.06683594 -38.0609375 82.50867188 -38.671875 81.93359375 C-40.28008687 80.00114562 -40.59731205 78.60564285 -41.125 76.1875 C-42.89091887 75.17833967 -42.89091887 75.17833967 -45.125 74.1875 C-48.375 71.9375 -48.375 71.9375 -51.125 69.1875 C-51.5 65.875 -51.5 65.875 -51.125 63.1875 C-50.34125 62.94 -49.5575 62.6925 -48.75 62.4375 C-45.6447462 60.95880771 -45.52402715 60.194232 -44.125 57.1875 C-43.26879786 55.93616636 -42.38263995 54.70497258 -41.47265625 53.4921875 C-40.94913574 52.78570068 -40.42561523 52.07921387 -39.88623047 51.35131836 C-39.32564941 50.5960083 -38.76506836 49.84069824 -38.1875 49.0625 C-33.6758357 42.90414703 -29.43188608 36.66905848 -25.5 30.125 C-25.05833496 29.39120117 -24.61666992 28.65740234 -24.16162109 27.90136719 C-23.27049414 26.41843303 -22.3798685 24.9351975 -21.48974609 23.45166016 C-19.13615304 19.54696928 -16.74269208 15.66994115 -14.3125 11.8125 C-13.88050293 11.10472412 -13.44850586 10.39694824 -13.00341797 9.66772461 C-9.78941616 4.60878468 -6.38728406 0.38323704 0 0 Z " fill="#DB4E0D" transform="translate(569.125,184.8125)"/>
<path d="M0 0 C4.14237914 3.74174758 6.81239577 7.1239577 7.375 12.75 C7.31774247 16.25543336 6.91117495 17.14265841 4.9375 20.3125 C-2.4926513 27.11029799 -11.5448355 27.15486342 -21.08984375 27.16796875 C-21.95203018 27.17129715 -22.81421661 27.17462555 -23.70252991 27.17805481 C-25.52376781 27.18309786 -27.34501488 27.18546395 -29.16625977 27.18530273 C-31.8981127 27.18746877 -34.62954755 27.20559581 -37.36132812 27.22460938 C-48.08574444 27.25877404 -58.39585141 26.63812012 -69 25 C-70.13848389 24.8342749 -71.27696777 24.6685498 -72.44995117 24.49780273 C-82.53297833 22.99725709 -91.3762729 21.17527257 -99 14 C-101.36560631 10.45159053 -101.61394704 8.45099026 -101.4921875 4.27734375 C-100.74158288 0.80430807 -99.07149916 -0.60448337 -96.26171875 -2.65625 C-70.39967001 -18.02161229 -25.1483415 -17.11686249 0 0 Z " fill="#426378" transform="translate(200,504)"/>
<path d="M0 0 C4.5192643 3.69757988 8.66548992 7.64357759 12.75 11.8125 C16.53347031 15.66765836 20.37281034 19.21375007 24.625 22.5625 C32.97769533 29.22061973 39.54453789 37.35015522 46.12109375 45.70703125 C50.99065523 51.69186909 50.99065523 51.69186909 57.18359375 56.125 C59.77011735 58.79495985 59.43852984 60.95296307 59.40039062 64.56445312 C59.37138672 65.38880859 59.34238281 66.21316406 59.3125 67.0625 C59.29799805 68.30483398 59.29799805 68.30483398 59.28320312 69.57226562 C59.16924662 75.66150676 59.16924662 75.66150676 58 78 C45.18242014 79.44197773 36.00583661 76.0875811 25.86230469 68.37451172 C10.99485489 56.25716895 1.39673894 41.6504606 -0.82348633 22.19042969 C-1.14914628 18.14918339 -1.14377387 14.11452664 -1.125 10.0625 C-1.12886719 9.20076172 -1.13273437 8.33902344 -1.13671875 7.45117188 C-1.12675118 1.12675118 -1.12675118 1.12675118 0 0 Z " fill="#FAC215" transform="translate(91,539)"/>
<path d="M0 0 C3.62915553 1.15391601 7.18144133 2.44367336 10.72265625 3.83984375 C20.36159188 7.64003426 29.73699091 11.29894877 40 13 C40.71559082 13.13245117 41.43118164 13.26490234 42.16845703 13.40136719 C78.53362908 19.9916753 114.70829471 16.45381961 149.5559082 4.78442383 C151.69233175 4.09874519 153.81660095 3.51267393 156 3 C154.69038165 6.92885504 152.35078413 8.77160566 149 11 C146.38310979 12.25532966 143.70786739 13.14425134 140.9375 14 C140.15656982 14.24854736 139.37563965 14.49709473 138.57104492 14.75317383 C98.39421112 27.22129852 58.96072581 27.78582869 18.23413086 17.47363281 C15.75791686 16.88599464 15.75791686 16.88599464 12.1875 16.8203125 C8.65361723 15.91085738 8.28988964 15.53244335 6.34765625 12.65625 C5.561406 11.2846067 4.80017163 9.89836882 4.0625 8.5 C3.66482422 7.79746094 3.26714844 7.09492187 2.85742188 6.37109375 C0 1.26609563 0 1.26609563 0 0 Z " fill="#E3530B" transform="translate(167,712)"/>
<path d="M0 0 C3.23722118 1.27598499 5.40452152 2.80904303 7 6 C7.39231417 10.70777 7.47336758 13.07079697 5.3125 17.3125 C2.41430219 20.68067583 0.36159162 22.6064014 -4.109375 23.3515625 C-8.26517473 23.6165296 -11.11690435 23.38694361 -14.4375 20.75 C-18.01934987 16.90606355 -18.82394118 15.36445584 -19.5 10.125 C-19.37568797 6.96392268 -18.78096309 4.99456884 -16.8125 2.5 C-12.10988011 -1.60777775 -5.82449328 -0.88697867 0 0 Z " fill="#E5EEF3" transform="translate(393,370)"/>
<path d="M0 0 C3.06640313 1.50225621 5.11898257 3.13758217 7 6 C7.81400916 9.17798095 7.75107588 11.81379528 7 15 C4.88608123 18.49890004 3.88263941 19.70578686 0 21 C-9.02445432 22.10360974 -9.02445432 22.10360974 -12.83203125 19.9765625 C-15.49128367 17.20235681 -16.40475593 14.20980448 -16.75 10.5 C-16.52275 6.87014194 -15.65211144 4.99089309 -13.0625 2.4375 C-8.86578395 -0.58922248 -5.01051631 -1.29445676 0 0 Z " fill="#E4EEF3" transform="translate(175,350)"/>
<path d="M0 0 C3.42771135 3.9173844 8 9.52151811 8 15 C7.34 15 6.68 15 6 15 C4.53417645 12.85718967 3.18876486 10.73293604 1.875 8.5 C1.50246094 7.87996094 1.12992188 7.25992187 0.74609375 6.62109375 C-0.17578953 5.08462162 -1.08873475 3.54279325 -2 2 C-1.34 1.34 -0.68 0.68 0 0 Z " fill="#C44F12" transform="translate(673,455)"/>
<path d="M0 0 C0.66 0.33 1.32 0.66 2 1 C-2.62 5.62 -7.24 10.24 -12 15 C-12.66 14.67 -13.32 14.34 -14 14 C-12.60919892 12.41224451 -11.21211596 10.82999061 -9.8125 9.25 C-8.64654297 7.92742187 -8.64654297 7.92742187 -7.45703125 6.578125 C-5.11544754 4.12113732 -2.69841735 2.05137234 0 0 Z " fill="#3C392E" transform="translate(591,90)"/>
<path d="M0 0 C-1.875 3.875 -1.875 3.875 -3 5 C-3.23481693 7.18292774 -3.41363323 9.37203174 -3.5625 11.5625 C-3.64628906 12.76003906 -3.73007812 13.95757812 -3.81640625 15.19140625 C-3.87699219 16.11824219 -3.93757812 17.04507812 -4 18 C-4.33 18 -4.66 18 -5 18 C-5.08119503 15.75059705 -5.13927819 13.50035129 -5.1875 11.25 C-5.22230469 9.99703125 -5.25710938 8.7440625 -5.29296875 7.453125 C-4.97998906 3.76413775 -4.32735588 0 0 0 Z " fill="#38312E" transform="translate(665,487)"/>
<path d="M0 0 C0.66 0.33 1.32 0.66 2 1 C-0.97 3.97 -3.94 6.94 -7 10 C-7 7 -7 7 -4.625 4.4375 C-3.75875 3.633125 -2.8925 2.82875 -2 2 C-1.34 1.34 -0.68 0.68 0 0 Z " fill="#3B322D" transform="translate(601,599)"/>
<path d="M0 0 C1.98 0.495 1.98 0.495 4 1 C3.67 2.32 3.34 3.64 3 5 C1.68 4.67 0.36 4.34 -1 4 C-0.67 2.68 -0.34 1.36 0 0 Z " fill="#4F502D" transform="translate(252,599)"/>
<path d="M0 0 C1.98 0.495 1.98 0.495 4 1 C3.67 2.32 3.34 3.64 3 5 C1.68 4.67 0.36 4.34 -1 4 C-0.67 2.68 -0.34 1.36 0 0 Z " fill="#4F502D" transform="translate(309,578)"/>
<path d="M0 0 C1.98 0.495 1.98 0.495 4 1 C3.67 2.32 3.34 3.64 3 5 C1.68 4.67 0.36 4.34 -1 4 C-0.67 2.68 -0.34 1.36 0 0 Z " fill="#4B4E2D" transform="translate(274,575)"/>
<path d="M0 0 C1.98 0.495 1.98 0.495 4 1 C3.67 2.32 3.34 3.64 3 5 C1.68 4.67 0.36 4.34 -1 4 C-0.67 2.68 -0.34 1.36 0 0 Z " fill="#4F502D" transform="translate(295,567)"/>
<path d="M0 0 C1.98 0.495 1.98 0.495 4 1 C3.67 2.32 3.34 3.64 3 5 C1.68 4.67 0.36 4.34 -1 4 C-0.67 2.68 -0.34 1.36 0 0 Z " fill="#4F502D" transform="translate(250,565)"/>
<path d="M0 0 C1.98 0.495 1.98 0.495 4 1 C3.67 2.32 3.34 3.64 3 5 C1.68 4.67 0.36 4.34 -1 4 C-0.67 2.68 -0.34 1.36 0 0 Z " fill="#4F502D" transform="translate(276,558)"/>
<path d="M0 0 C1.32 0 2.64 0 4 0 C4 1.65 4 3.3 4 5 C2.68 5 1.36 5 0 5 C0 3.35 0 1.7 0 0 Z " fill="#57552C" transform="translate(254,584)"/>
</svg>
